<?xml version="1.0" encoding="UTF-8"?>
<svg id="Calque_2" data-name="Calque 2" xmlns="http://www.w3.org/2000/svg" viewBox="0 0 820.08 315.69">
  <path d="M286.65,263.9l2.37-3,7.87-7.89c1.52-1.52,3.41-1.7,5.09-2.44,2.32-1.02,3.84-.76,6.11-.08s4.17,1.03,6.08,2.43l6.72,4.93,13,12.29,6.8,6.24,3.01,2.42,5.91,4.18,3.95,2.42,6.03,2.99,6.94,2.18,6.03.54,3.93-.46c4.89-.57,9.34-2.12,13.31-4.76l8.78-5.85,3.05-2.4,6.68-6.21c2.83-1.72,4.42-4.29,6.47-6.65,1.74-2,3.89-3.82,5.81-5.53l5.6-4.97c3.45-2.35,6.55-5.24,10.85-5.81,1.37-.18,2.97-.88,4.32-.64l4.27.76c2.29.41,4.57,1.94,6.43,3.35l3.11,2.36,9.67,9.73,2.75,3.35,2.56,3.38,2.47,3.11,5.03,6.39c.88,1.12,1.52,2,2.5,3.05l4.07,4.32c1.03,1.75,2.17,3.1,3.68,4.39l4.54,3.89,4.1,3.45c7.59,6.39,21.75,13.22,31.43,13.82l3.58.66c3.78.69,7.99.67,11.84.03l4.57-.76c1.64-.27,3.68-.39,5.24-.8l10.29-2.71,5.39-1.55,14.36-4.61,8.47-2.1c3.48-.86,6.67-.86,10.24-1.26l5.95-.68c1.96-.22,3.6-.02,5.59.73l5.36.12,7.91.74,4.56.89c2.55.49,5.17,1.06,7.59,1.43l4.69.71,4.72.76,6.93.66c1.57.15,3.22,1.2,5.13.68s3.75.5,5.51.51l21.5.06c1.38,0,2.92-1.13,4.46-.56s2.97-.64,4.09-.74l7.03-.59,3.68-.74,7.83-1.6,6.72-1.83,5.59-1.59,6.02-1.5,9.38-2.65,10.65-2.59,3.32-.69,11.81-1.95c7.11-1.18,13.98-3.45,20-7.44,7.13-4.74,9.93-12.79,12.58-20.6l1.36-6.78.73-3.76.65-6.93c.14-1.44,1.13-2.82.74-4.65s.43-3.67.49-5.47l.24-7.33c.06-1.74.99-3.16.72-5.17-.25-1.89.48-3.66.54-5.52l.19-5.82c.78-2.13.49-3.93.76-6.12l.8-6.41.65-5.2.82-4.3.66-4.69.79-3.85.69-4.75.81-4.21.63-4.4.87-4.56.63-4.31.65-4.29.82-5.9.59-4.87c.25-2.05.59-3.58.79-5.76l.65-7.38c.12-1.3,1.22-2.8.79-4.58-.56-2.33.41-4.66.45-6.91l.23-12.24.8-2.74-.05-10.62-.79-2.14-.21-10.28c-.05-2.39-.78-4.48-.48-7.08.04-.31-.51-.96-.63-1.18l-.38-.71c.46-1.71.06-3.2-.29-4.68l-.95-4-1.95-7.63-2.27-6.83-5.13-10.48-4.67-7.29-3.09-3.31c-1.37-2.59-3.43-3.87-5.54-5.65l-5.1-4.28-5.15-3.46-11.08-5.52c-3.83-1.91-7.68-2.88-11.82-3.82l-7.22-1.65-4.01-.63c-2.17-.34-4.56-1.03-6.92-.5-1.73.39-5.48-1.68-13.03-.69-1.47.19-2.74,1.12-4.49.68s-8.63.64-12.46,1.32l-6.35,1.12-10.14,1.99-7.87,1.55-2.65.55-17.95,4.17-9.11,2.34-15.9,3.74-17.12,4.12-4.9.72-4.3.71-6.11.26c-2.71.84-4.94.2-7.65.05l-6.9-.38-11.46-2.74-21.12-6.91-6.77-2.07c-3.74-1.14-7.62-2.31-11.63-2.44l-3.97-.79-17.53.03-4.01.74c-3.87.72-7.88,1.32-11.55,2.55l-13.9,4.67-16.62,6.85-10.74,4.25-9.21,3.17-8.5,2.38-26.33,8.85-15.9,6.52-13.18,4.4c-1.86.62-3.65.49-5.44.83-9.65,1.83-19.11-3.49-26.91-8.99l-6.11-4.31-15.67-10.46c-7.92-5.28-17.34-8.61-26.79-9.8-1.55-.2-2.63-.6-4.1-.65l-10.41-.39c-1.33-.05-2.62.78-3.62.8-5.16.1-19.1,5.76-24.04,9.26l-6.83,4.85-15.29,15.13-1.85,2.57-6.43,9.31-5.99,8.84c-1.39,2.05-2.78,4.11-5.34,5.13-5.17,2.07-9.48-3.11-13.11-7.62l-3.09-3.83c-1.06-1.31-2.08-2.62-3.08-3.88l-2.64-3.34-9.81-9.73-5.13-3.91c-5.05-3.84-11.42-7.99-17.42-9.78l-7.62-2.28-8.01-1.43-8.3-1.68c-8.44-1.71-16.48-2.24-25.95-5l-6.2-1.8c-2.85-.83-5.35-1.87-8.12-2.78l-12.63-4.13-11.46-3.06-3.54-.73c-1.33-.27-3.02-.75-4.42-.75l-16.43-.04-5.07,1.07c-3.87.82-7.28,1.83-10.81,3.54-1.58.77-3.08.9-4.63,2.15-1.05.84-2.64,1.79-3.84,2.45-2.36,1.29-3.98,3.13-6,4.56-2.69,1.9-4.4,4.12-6.49,6.56-6.12,7.16-10.57,15.13-13.69,24.07-2.96,8.45-5.27,16.61-6.5,25.47-.81,5.81-1.68,10.95-1.99,17.25-.07,1.51-1.19,3.09-.76,5.04.51,2.34-.4,4.67-.45,6.93l-.3,13.2C.65,122.48,0,123.21,0,124.71v80.75c0,1.52.64,2.22.68,3.41l.3,11.17c.05,1.94.92,3.95.47,5.95-.44,1.98.59,3.56.73,5.13l.61,6.91c.18,2.08.56,3.69.84,5.59,1.95,13.24,5.4,25.95,11.68,37.67l6.3,9.69,4.83,5.23,5.66,5.36,8.75,5.75,10.53,4.14,3.82.94,4.5.7,11.96-.02c1.47,0,3.07-.26,4.55-.61l6.83-1.63c1.7-.41,3.37-.91,5.01-1.48l5.63-1.96,20.46-8.72,7.5-2.98,5.83-1.68c1.34-.39,3.14-.98,4.4-.98l15.59-.04c.94,0,2.42.67,3.54.87,7.94,1.39,14.97,4.88,22.08,8.27l11.46,5.46c8.05,3.09,15.9,6.24,24.57,7.13,3.95.4,8.01,1.57,11.34.6,1.79-.52,2.93-.36,4.69-.6,12.88-1.69,24.09-8.02,33.82-16.24,2.62-2.21,4.92-4.44,7.13-7.04l3.46-4.08,2.82-3.59,5.72-7.76,5.17-7.32,3.42-4.79Z"/>
</svg>