<?xml version="1.0" encoding="UTF-8"?>
<svg data-name="Calque 1" xmlns="http://www.w3.org/2000/svg" viewBox="0 0 1538.56 319.66">
  <path d="M537.8,267.22l4.46-3.03,14.77-7.99c2.84-1.54,6.39-1.72,9.56-2.48,4.34-1.03,7.2-.77,11.46-.08,4.1.66,7.83,1.04,11.41,2.46l12.61,5,24.39,12.45,12.77,6.32,5.65,2.45,11.09,4.24,7.41,2.45,11.3,3.03,13.03,2.21,11.32.55,7.37-.46c9.18-.58,17.52-2.14,24.97-4.82l16.47-5.92,5.71-2.43,12.53-6.29c5.3-1.74,8.3-4.34,12.14-6.73,3.26-2.03,7.29-3.87,10.9-5.6l10.51-5.04c6.46-2.38,12.29-5.31,20.36-5.89,2.57-.18,5.56-.89,8.1-.65l8,.77c4.3.41,8.58,1.96,12.06,3.39l5.83,2.38,18.15,9.85,5.15,3.39,4.8,3.42,4.64,3.15,9.44,6.47c1.66,1.14,2.84,2.03,4.69,3.09l7.64,4.38c1.94,1.77,4.07,3.14,6.9,4.45l8.52,3.93,7.7,3.5c14.25,6.47,40.81,13.38,58.96,13.99l6.71.66c7.09.7,14.99.68,22.21.03l8.57-.77c3.07-.28,6.9-.4,9.83-.81l19.31-2.75,10.11-1.57,26.95-4.66,15.89-2.13c6.54-.87,12.52-.87,19.22-1.28l11.16-.68c3.68-.23,6.75-.02,10.49.74l10.06.12,14.84.75,8.55.9c4.78.5,9.69,1.07,14.23,1.45l8.79.72,8.86.77,13,.67c2.94.15,6.05,1.21,9.62.69s7.04.51,10.33.51l40.33.06c2.58,0,5.47-1.14,8.37-.57s5.57-.65,7.68-.75l13.19-.6,6.9-.75,14.7-1.62,12.6-1.85,10.49-1.61,11.29-1.52,17.6-2.68,19.98-2.62,6.23-.7,22.16-1.98c13.34-1.19,26.23-3.49,37.52-7.54,13.38-4.8,18.63-12.95,23.6-20.86l2.55-6.87,1.37-3.81,1.23-7.02c.25-1.46,2.12-2.85,1.38-4.7-.74-1.86.81-3.71.92-5.54l.45-7.42c.11-1.77,1.85-3.2,1.35-5.23-.47-1.91.89-3.7,1.01-5.59l.36-5.89c1.47-2.16.92-3.98,1.43-6.19l1.5-6.49,1.21-5.27,1.53-4.35,1.23-4.75,1.48-3.89,1.3-4.8,1.51-4.26,1.18-4.45,1.64-4.62,1.18-4.36,1.23-4.35,1.54-5.97,1.11-4.93c.47-2.08,1.12-3.63,1.48-5.83l1.23-7.48c.22-1.32,2.29-2.83,1.49-4.64-1.05-2.35.77-4.72.85-7l.42-12.4,1.49-2.77-.09-10.75-1.48-2.17-.39-10.41c-.09-2.42-1.46-4.54-.89-7.17.07-.32-.96-.97-1.18-1.19l-.71-.72c.86-1.73.11-3.24-.54-4.74l-1.78-4.05-3.66-7.73-4.26-6.91-9.63-10.61-8.77-7.38-5.8-3.35c-2.57-2.62-6.43-3.92-10.4-5.72l-9.56-4.34-9.67-3.5-20.78-5.59c-7.19-1.93-14.42-2.91-22.17-3.87l-13.55-1.67-7.53-.64c-4.07-.35-8.55-1.04-12.99-.51-3.24.39-10.27-1.7-24.44-.7-2.75.19-5.14,1.13-8.42.69s-16.19.65-23.38,1.34l-11.91,1.14-19.02,2.01-14.76,1.57-4.97.56-33.67,4.23-17.09,2.37-29.84,3.78-32.12,4.17-9.2.73-8.07.72-11.47.26c-5.09.85-9.26.2-14.35.05l-12.94-.38-21.51-2.77-39.63-7-12.71-2.09c-7.02-1.16-14.3-2.34-21.82-2.47l-7.45-.8-32.89.03-7.51.75c-7.27.73-14.78,1.34-21.67,2.59l-26.07,4.73-31.18,6.93-20.16,4.3-17.28,3.21-15.95,2.41-49.4,8.96-29.84,6.6-24.73,4.45c-3.49.63-6.85.5-10.2.84-18.11,1.85-35.85-3.54-50.49-9.1l-11.46-4.36-29.41-10.59c-14.86-5.35-32.53-8.72-50.26-9.93-2.91-.2-4.93-.6-7.69-.66l-19.54-.4c-2.49-.05-4.91.79-6.79.81-9.68.1-35.84,5.83-45.1,9.37l-12.82,4.91-28.68,15.33-3.47,2.6-12.06,9.42-11.23,8.95c-2.61,2.08-5.21,4.16-10.02,5.2-9.69,2.09-17.78-3.15-24.59-7.71l-5.79-3.88c-1.98-1.33-3.91-2.65-5.78-3.93l-4.95-3.38-18.4-9.85-9.63-3.95c-9.47-3.89-21.42-8.09-32.68-9.91l-14.29-2.3-15.04-1.45-15.57-1.7c-15.83-1.73-30.92-2.27-48.69-5.06l-11.62-1.83c-5.35-.84-10.03-1.89-15.24-2.81l-23.69-4.18-21.5-3.09-6.64-.74c-2.49-.28-5.67-.76-8.29-.76l-30.83-.04-9.51,1.08c-7.25.83-13.66,1.85-20.28,3.59-2.96.78-5.77.91-8.68,2.18-1.96.85-4.95,1.81-7.2,2.48-4.43,1.31-7.47,3.17-11.26,4.62-5.04,1.92-8.26,4.17-12.18,6.64-11.48,7.25-19.82,15.32-25.69,24.37-5.54,8.56-9.89,16.82-12.2,25.79-1.51,5.89-3.15,11.09-3.73,17.46-.14,1.53-2.23,3.13-1.43,5.1.96,2.37-.75,4.73-.85,7.01l-.56,13.37C1.22,124.02,0,124.76,0,126.28v81.77c0,1.54,1.21,2.25,1.27,3.45l.56,11.31c.1,1.97,1.73,4,.89,6.02-.83,2.01,1.11,3.6,1.37,5.19l1.14,6.99c.34,2.1,1.05,3.73,1.58,5.66,3.67,13.41,10.12,26.27,21.91,38.15l11.83,9.81,9.06,5.3,10.61,5.42,16.42,5.83,19.76,4.2,7.17.95,8.44.71,22.44-.02c2.77,0,5.76-.26,8.54-.62l12.81-1.65c3.19-.41,6.33-.92,9.39-1.5l10.55-1.99,38.38-8.83,14.07-3.02,10.93-1.7c2.52-.39,5.9-.99,8.25-.99l29.25-.05c1.76,0,4.53.68,6.64.88,14.9,1.41,28.08,4.94,41.42,8.37l21.51,5.53c15.11,3.13,29.82,6.32,46.1,7.21,7.4.41,15.03,1.59,21.27.6,3.36-.53,5.49-.37,8.81-.6,24.17-1.71,45.2-8.13,63.45-16.45,4.91-2.24,9.23-4.5,13.37-7.13l6.49-4.13,5.28-3.64,10.73-7.86,9.7-7.41,6.41-4.85Z"/>
</svg>