<?xml version="1.0" encoding="UTF-8"?>
<svg data-name="Calque 3" xmlns="http://www.w3.org/2000/svg" viewBox="0 0 2110.72 1205.56">
  <path d="M113.56,22.19C17.71,65.55,4.81,213.85,1.56,251.29c-13.15,151.24,60.99,174.68,76.37,366.56,7.19,89.66-8.9,85.78-5.09,280.01,2.78,141.79,12.44,198.96,56,239.28,51.27,47.46,121.9,46.01,127.28,45.82,73.85-2.57,58.37-103.15,143.65-113.01,69.52-8.04,52.57,37.57,207.64,57.01,139.44,17.48,162.87,21.57,193.46,5.09,51.96-27.98,84.39-80.03,140.59-107,88.02-42.25,166.71-32.18,251.43,10.27,108.46,54.35,85.1,106.21,178.19,152.73,117.2,58.57,174.67-44.51,348.51-96.11,103.3-30.66,224.49,18.55,252.25-31.17,32.19-57.66,86.14-95.43,99.84-229.38,7.4-72.31-65.25-125.68-43.84-193.19,46.61-146.99,72.56-143.01,81.46-218.92,13.88-118.47-77.45-182.78-104.52-232.22-43.26-79.03-38.8-173.43-99.13-185.25-85.51-16.75-121.38,87.22-239.28,86.55-68.96-.39-77.99-36.07-173.1-56-52.7-11.04-179.63,15.57-298.3,38.51-156.4,30.24-228.29-56.25-383.78-10.56-226.25,66.48-242.77,188.86-331.06,140.06-82.23-45.46-83.93-116.13-198.56-162.92-36.91-15.07-106.06-43.3-168.01-15.27Z"/>
</svg>